# xmcd
#
# Track frame offsets:
#	150
#	16092
#	37821
#	70999
#	83027
#	101033
#	117287
#	136141
#	149093
#	168915
#	183623
#	196242
#	210693
#	228826
#	247144
#	261253
#	279281
#	293414
#
# Disc length: 4123 seconds
# Revision: 0
# Processed by: cddbd v1.5.2PL0 Copyright (c) Steve Scherf et al.
# Submitted via: dBpowerAMP V12.0
#
DISCID=00101912
DTITLE=Various Artist - We Had It All
DYEAR=2013
DGENRE=Blues
TTITLE0=Dave Kelly and Pete Emery and Marcus Cliffe and Sam Kelly - New Stockyard Blues
TTITLE1=Dave Kelly and Eric Bibb - Needed Time
TTITLE2=Dave Kelly and Holwin' Wolf and John Dummer Blues Band - Dust My Blues
TTITLE3=Dave Kelly and Homer Kelly-Tarrant and Christine Collister and Peter Filleul - Good Riddance
TTITLE4=Dave Kelly and Chuck Leavell and Frank Collins and Paddie McHughe and Dyan Birch and Pick Withers - The River
TTITLE5=Dave Kelly and Jo-Anne Kelly - Ramblin' Gal
TTITLE6=Dave Kelly and Keith Nelson and Cedric Thorose and Iain 'Thump' Thompson and Peter Miles - Passing Through
TTITLE7=Dave Kelly and Lily Kelly-Tarrant and Steve Simpson - Wasting Time
TTITLE8=Dave Kelly and Lou Stonebridge and Steve Donnelly and Gary Fletcher and Rob Townsend - Love Is A Compromise
TTITLE9=Dave Kelly and Maggie Bell and Keith Nelson and Julian Dawson and Homer Kelly-Tarrant - Gulf Coast Highway
TTITLE10=Dave Kelly and Keith Nelson - Sugar Babe
TTITLE11=Dave Kelly and Christine Collister and Homer Kelly-Tarrant - Way Down In The Hole
TTITLE12=Dave Kelly and Chris Barber - Mr Estes Said
TTITLE13=Dave Kelly and Jona Lewie - D-Day Blues
TTITLE14=Dave Kelly and Paul Jones - Too Young To Know
TTITLE15=Dave Kelly and Long John Baldry - Take This Hammer
TTITLE16=Dave Kelly and Sonny Black - Slide Guitar Rag
TTITLE17=Dave Kelly and Julian Dawson and Keith Nelson and Homer Kelly-Tarrant - We Had It All
EXTD=
EXTT0=
EXTT1=
EXTT2=
EXTT3=
EXTT4=
EXTT5=
EXTT6=
EXTT7=
EXTT8=
EXTT9=
EXTT10=
EXTT11=
EXTT12=
EXTT13=
EXTT14=
EXTT15=
EXTT16=
EXTT17=
PLAYORDER=
